<svg xmlns="http://www.w3.org/2000/svg" version="1.1" xmlns:xlink="http://www.w3.org/1999/xlink" xmlns:svgjs="http://svgjs.com/svgjs" width="2880" height="1120" preserveAspectRatio="none" viewBox="0 0 2880 1120"><g mask="url(&quot;#SvgjsMask1113&quot;)" fill="none"><path d="M279.41 470.03 a251.44 251.44 0 1 0 502.88 0 a251.44 251.44 0 1 0 -502.88 0z" fill="rgba(28, 83, 142, 0.4)" class="triangle-float2"></path><path d="M724.5051896231884 764.6569038663106L599.3193730975861 913.8475504525367 885.6982512397263 1027.030951947827z" fill="rgba(28, 83, 142, 0.4)" class="triangle-float1"></path><path d="M1276.7614916513492 351.51023090428976L1109.0717046908298 412.54432194835954 1170.1057957348996 580.2341089088787 1337.795582695419 519.200017864809z" fill="rgba(28, 83, 142, 0.4)" class="triangle-float1"></path><path d="M2087.786701861925 1084.5456650020465L2023.085187865018 804.2926180947858 1742.8321409577575 868.9941320916926 1807.5336549546641 1149.2471789989534z" fill="rgba(28, 83, 142, 0.4)" class="triangle-float2"></path><path d="M293.05057872093147 607.8940885183604L66.26473805806611 529.8054612750257-11.82388918526857 756.5913019378911 214.96195147759678 834.6799291812257z" fill="rgba(28, 83, 142, 0.4)" class="triangle-float1"></path><path d="M580.5118603479923 969.4890011115106L722.113238253952 703.175542154265 455.7997792967064 561.5741642483054 314.19840139074677 827.8876232055509z" fill="rgba(28, 83, 142, 0.4)" class="triangle-float3"></path><path d="M1819.907769414936-100.22498980996747L1531.1419782625796-80.0325186363376 1840.1002405885658 188.54080134238885z" fill="rgba(28, 83, 142, 0.4)" class="triangle-float1"></path><path d="M2408.281,873.96C2500.768,869.163,2573.533,802.587,2617.698,721.185C2659.581,643.988,2670.365,550.343,2624.493,475.447C2580.336,403.352,2492.808,377.642,2408.281,379.265C2326.997,380.826,2251.959,416.43,2205.99,483.485C2152.251,561.875,2113.8,660.665,2157.519,745.054C2203.855,834.496,2307.684,879.178,2408.281,873.96" fill="rgba(28, 83, 142, 0.4)" class="triangle-float1"></path><path d="M89.276,1071.113C132.44,1070.942,170.504,1047.066,193.991,1010.851C220.095,970.602,238.724,919.504,214.43,878.137C190.332,837.103,136.789,829.889,89.276,832.546C47.034,834.909,7.797,854.503,-13.772,890.9C-35.779,928.036,-38.311,974.212,-16.883,1011.685C4.692,1049.417,45.811,1071.285,89.276,1071.113" fill="rgba(28, 83, 142, 0.4)" class="triangle-float2"></path><path d="M1070.1828476970345 196.07482363979017L860.9764389870741 192.4231121923586 857.3247275396425 401.629520902319 1066.531136249603 405.28123234975055z" fill="rgba(28, 83, 142, 0.4)" class="triangle-float2"></path><path d="M2351.2921705201993 379.858255129493L2508.9794609637647 561.2567322760541 2532.6906476667605 222.17096468592746z" fill="rgba(28, 83, 142, 0.4)" class="triangle-float1"></path><path d="M1442.883,505.61C1491.942,508.838,1542.804,489.973,1567.649,447.547C1592.712,404.749,1583.257,351.734,1557.983,309.06C1533.249,267.297,1491.394,235.264,1442.883,236.881C1396.57,238.425,1361.286,274.976,1340.348,316.315C1321.535,353.458,1323.813,396.2,1343.643,432.81C1364.586,471.474,1399.006,502.723,1442.883,505.61" fill="rgba(28, 83, 142, 0.4)" class="triangle-float2"></path></g><defs><mask id="SvgjsMask1113"><rect width="2880" height="1120" fill="#ffffff"></rect></mask><style>
            @keyframes float1 {
                0%{transform: translate(0, 0)}
                50%{transform: translate(-10px, 0)}
                100%{transform: translate(0, 0)}
            }

            .triangle-float1 {
                animation: float1 5s infinite;
            }

            @keyframes float2 {
                0%{transform: translate(0, 0)}
                50%{transform: translate(-5px, -5px)}
                100%{transform: translate(0, 0)}
            }

            .triangle-float2 {
                animation: float2 4s infinite;
            }

            @keyframes float3 {
                0%{transform: translate(0, 0)}
                50%{transform: translate(0, -10px)}
                100%{transform: translate(0, 0)}
            }

            .triangle-float3 {
                animation: float3 6s infinite;
            }
        </style></defs></svg>