<svg xmlns="http://www.w3.org/2000/svg" version="1.1" xmlns:xlink="http://www.w3.org/1999/xlink" xmlns:svgjs="http://svgjs.com/svgjs" width="2880" height="1120" preserveAspectRatio="none" viewBox="0 0 2880 1120"><g mask="url(&quot;#SvgjsMask1508&quot;)" fill="none"><path d="M102.33 489.21L202.79 547.21L202.79 663.21L102.33 721.21L1.87 663.21L1.87 547.21zM1.87 663.21L102.33 721.21L102.33 837.21L1.87 895.21L-98.59 837.21L-98.59 721.21zM102.33 837.21L202.79 895.21L202.79 1011.21L102.33 1069.21L1.87 1011.21L1.87 895.21zM1.87 1011.21L102.33 1069.21L102.33 1185.21L1.87 1243.21L-98.59 1185.21L-98.59 1069.21zM303.26 141.21L403.72 199.21L403.72 315.21L303.26 373.21L202.79 315.21L202.79 199.21zM303.26 837.21L403.72 895.21L403.72 1011.21L303.26 1069.21L202.79 1011.21L202.79 895.21zM202.79 1011.21L303.26 1069.21L303.26 1185.21L202.79 1243.21L102.33 1185.21L102.33 1069.21zM403.72 -32.79L504.18 25.21L504.18 141.21L403.72 199.21L303.26 141.21L303.26 25.21zM504.18 489.21L604.64 547.21L604.64 663.21L504.18 721.21L403.72 663.21L403.72 547.21zM403.72 663.21L504.18 721.21L504.18 837.21L403.72 895.21L303.26 837.21L303.26 721.21zM604.64 -32.79L705.1 25.21L705.1 141.21L604.64 199.21L504.18 141.21L504.18 25.21zM604.64 315.21L705.1 373.21L705.1 489.21L604.64 547.21L504.18 489.21L504.18 373.21zM604.64 1011.21L705.1 1069.21L705.1 1185.21L604.64 1243.21L504.18 1185.21L504.18 1069.21zM805.56 -32.79L906.03 25.21L906.03 141.21L805.56 199.21L705.1 141.21L705.1 25.21zM906.03 141.21L1006.49 199.21L1006.49 315.21L906.03 373.21L805.56 315.21L805.56 199.21zM805.56 663.21L906.03 721.21L906.03 837.21L805.56 895.21L705.1 837.21L705.1 721.21zM805.56 1011.21L906.03 1069.21L906.03 1185.21L805.56 1243.21L705.1 1185.21L705.1 1069.21zM1106.95 837.21L1207.41 895.21L1207.41 1011.21L1106.95 1069.21L1006.49 1011.21L1006.49 895.21zM1006.49 1011.21L1106.95 1069.21L1106.95 1185.21L1006.49 1243.21L906.03 1185.21L906.03 1069.21zM1207.41 663.21L1307.87 721.21L1307.87 837.21L1207.41 895.21L1106.95 837.21L1106.95 721.21zM1408.34 -32.79L1508.8 25.21L1508.8 141.21L1408.34 199.21L1307.87 141.21L1307.87 25.21zM1408.34 1011.21L1508.8 1069.21L1508.8 1185.21L1408.34 1243.21L1307.87 1185.21L1307.87 1069.21zM1709.72 837.21L1810.18 895.21L1810.18 1011.21L1709.72 1069.21L1609.26 1011.21L1609.26 895.21zM1609.26 1011.21L1709.72 1069.21L1709.72 1185.21L1609.26 1243.21L1508.8 1185.21L1508.8 1069.21zM1810.18 663.21L1910.64 721.21L1910.64 837.21L1810.18 895.21L1709.72 837.21L1709.72 721.21zM2312.49 489.21L2412.95 547.21L2412.95 663.21L2312.49 721.21L2212.03 663.21L2212.03 547.21zM2212.03 663.21L2312.49 721.21L2312.49 837.21L2212.03 895.21L2111.57 837.21L2111.57 721.21zM2513.41 141.21L2613.88 199.21L2613.88 315.21L2513.41 373.21L2412.95 315.21L2412.95 199.21zM2412.95 315.21L2513.41 373.21L2513.41 489.21L2412.95 547.21L2312.49 489.21L2312.49 373.21zM2513.41 489.21L2613.88 547.21L2613.88 663.21L2513.41 721.21L2412.95 663.21L2412.95 547.21zM2513.41 837.21L2613.88 895.21L2613.88 1011.21L2513.41 1069.21L2412.95 1011.21L2412.95 895.21zM2613.88 663.21L2714.34 721.21L2714.34 837.21L2613.88 895.21L2513.41 837.21L2513.41 721.21z" stroke="rgba(39, 99, 159, 0.75)" stroke-width="2"></path><path d="M90.73 489.21 a11.6 11.6 0 1 0 23.2 0 a11.6 11.6 0 1 0 -23.2 0zM191.19 547.21 a11.6 11.6 0 1 0 23.2 0 a11.6 11.6 0 1 0 -23.2 0zM191.19 663.21 a11.6 11.6 0 1 0 23.2 0 a11.6 11.6 0 1 0 -23.2 0zM90.73 721.21 a11.6 11.6 0 1 0 23.2 0 a11.6 11.6 0 1 0 -23.2 0zM-9.73 663.21 a11.6 11.6 0 1 0 23.2 0 a11.6 11.6 0 1 0 -23.2 0zM-9.73 547.21 a11.6 11.6 0 1 0 23.2 0 a11.6 11.6 0 1 0 -23.2 0zM90.73 837.21 a11.6 11.6 0 1 0 23.2 0 a11.6 11.6 0 1 0 -23.2 0zM-9.73 895.21 a11.6 11.6 0 1 0 23.2 0 a11.6 11.6 0 1 0 -23.2 0zM-110.19 837.21 a11.6 11.6 0 1 0 23.2 0 a11.6 11.6 0 1 0 -23.2 0zM-110.19 721.21 a11.6 11.6 0 1 0 23.2 0 a11.6 11.6 0 1 0 -23.2 0zM191.19 895.21 a11.6 11.6 0 1 0 23.2 0 a11.6 11.6 0 1 0 -23.2 0zM191.19 1011.21 a11.6 11.6 0 1 0 23.2 0 a11.6 11.6 0 1 0 -23.2 0zM90.73 1069.21 a11.6 11.6 0 1 0 23.2 0 a11.6 11.6 0 1 0 -23.2 0zM-9.73 1011.21 a11.6 11.6 0 1 0 23.2 0 a11.6 11.6 0 1 0 -23.2 0zM90.73 1185.21 a11.6 11.6 0 1 0 23.2 0 a11.6 11.6 0 1 0 -23.2 0zM-9.73 1243.21 a11.6 11.6 0 1 0 23.2 0 a11.6 11.6 0 1 0 -23.2 0zM-110.19 1185.21 a11.6 11.6 0 1 0 23.2 0 a11.6 11.6 0 1 0 -23.2 0zM-110.19 1069.21 a11.6 11.6 0 1 0 23.2 0 a11.6 11.6 0 1 0 -23.2 0zM291.66 141.21 a11.6 11.6 0 1 0 23.2 0 a11.6 11.6 0 1 0 -23.2 0zM392.12 199.21 a11.6 11.6 0 1 0 23.2 0 a11.6 11.6 0 1 0 -23.2 0zM392.12 315.21 a11.6 11.6 0 1 0 23.2 0 a11.6 11.6 0 1 0 -23.2 0zM291.66 373.21 a11.6 11.6 0 1 0 23.2 0 a11.6 11.6 0 1 0 -23.2 0zM191.19 315.21 a11.6 11.6 0 1 0 23.2 0 a11.6 11.6 0 1 0 -23.2 0zM191.19 199.21 a11.6 11.6 0 1 0 23.2 0 a11.6 11.6 0 1 0 -23.2 0zM291.66 837.21 a11.6 11.6 0 1 0 23.2 0 a11.6 11.6 0 1 0 -23.2 0zM392.12 895.21 a11.6 11.6 0 1 0 23.2 0 a11.6 11.6 0 1 0 -23.2 0zM392.12 1011.21 a11.6 11.6 0 1 0 23.2 0 a11.6 11.6 0 1 0 -23.2 0zM291.66 1069.21 a11.6 11.6 0 1 0 23.2 0 a11.6 11.6 0 1 0 -23.2 0zM291.66 1185.21 a11.6 11.6 0 1 0 23.2 0 a11.6 11.6 0 1 0 -23.2 0zM191.19 1243.21 a11.6 11.6 0 1 0 23.2 0 a11.6 11.6 0 1 0 -23.2 0zM392.12 -32.79 a11.6 11.6 0 1 0 23.2 0 a11.6 11.6 0 1 0 -23.2 0zM492.58 25.21 a11.6 11.6 0 1 0 23.2 0 a11.6 11.6 0 1 0 -23.2 0zM492.58 141.21 a11.6 11.6 0 1 0 23.2 0 a11.6 11.6 0 1 0 -23.2 0zM291.66 25.21 a11.6 11.6 0 1 0 23.2 0 a11.6 11.6 0 1 0 -23.2 0zM492.58 489.21 a11.6 11.6 0 1 0 23.2 0 a11.6 11.6 0 1 0 -23.2 0zM593.04 547.21 a11.6 11.6 0 1 0 23.2 0 a11.6 11.6 0 1 0 -23.2 0zM593.04 663.21 a11.6 11.6 0 1 0 23.2 0 a11.6 11.6 0 1 0 -23.2 0zM492.58 721.21 a11.6 11.6 0 1 0 23.2 0 a11.6 11.6 0 1 0 -23.2 0zM392.12 663.21 a11.6 11.6 0 1 0 23.2 0 a11.6 11.6 0 1 0 -23.2 0zM392.12 547.21 a11.6 11.6 0 1 0 23.2 0 a11.6 11.6 0 1 0 -23.2 0zM492.58 837.21 a11.6 11.6 0 1 0 23.2 0 a11.6 11.6 0 1 0 -23.2 0zM291.66 721.21 a11.6 11.6 0 1 0 23.2 0 a11.6 11.6 0 1 0 -23.2 0zM593.04 -32.79 a11.6 11.6 0 1 0 23.2 0 a11.6 11.6 0 1 0 -23.2 0zM693.5 25.21 a11.6 11.6 0 1 0 23.2 0 a11.6 11.6 0 1 0 -23.2 0zM693.5 141.21 a11.6 11.6 0 1 0 23.2 0 a11.6 11.6 0 1 0 -23.2 0zM593.04 199.21 a11.6 11.6 0 1 0 23.2 0 a11.6 11.6 0 1 0 -23.2 0zM593.04 315.21 a11.6 11.6 0 1 0 23.2 0 a11.6 11.6 0 1 0 -23.2 0zM693.5 373.21 a11.6 11.6 0 1 0 23.2 0 a11.6 11.6 0 1 0 -23.2 0zM693.5 489.21 a11.6 11.6 0 1 0 23.2 0 a11.6 11.6 0 1 0 -23.2 0zM492.58 373.21 a11.6 11.6 0 1 0 23.2 0 a11.6 11.6 0 1 0 -23.2 0zM593.04 1011.21 a11.6 11.6 0 1 0 23.2 0 a11.6 11.6 0 1 0 -23.2 0zM693.5 1069.21 a11.6 11.6 0 1 0 23.2 0 a11.6 11.6 0 1 0 -23.2 0zM693.5 1185.21 a11.6 11.6 0 1 0 23.2 0 a11.6 11.6 0 1 0 -23.2 0zM593.04 1243.21 a11.6 11.6 0 1 0 23.2 0 a11.6 11.6 0 1 0 -23.2 0zM492.58 1185.21 a11.6 11.6 0 1 0 23.2 0 a11.6 11.6 0 1 0 -23.2 0zM492.58 1069.21 a11.6 11.6 0 1 0 23.2 0 a11.6 11.6 0 1 0 -23.2 0zM793.96 -32.79 a11.6 11.6 0 1 0 23.2 0 a11.6 11.6 0 1 0 -23.2 0zM894.43 25.21 a11.6 11.6 0 1 0 23.2 0 a11.6 11.6 0 1 0 -23.2 0zM894.43 141.21 a11.6 11.6 0 1 0 23.2 0 a11.6 11.6 0 1 0 -23.2 0zM793.96 199.21 a11.6 11.6 0 1 0 23.2 0 a11.6 11.6 0 1 0 -23.2 0zM994.89 199.21 a11.6 11.6 0 1 0 23.2 0 a11.6 11.6 0 1 0 -23.2 0zM994.89 315.21 a11.6 11.6 0 1 0 23.2 0 a11.6 11.6 0 1 0 -23.2 0zM894.43 373.21 a11.6 11.6 0 1 0 23.2 0 a11.6 11.6 0 1 0 -23.2 0zM793.96 315.21 a11.6 11.6 0 1 0 23.2 0 a11.6 11.6 0 1 0 -23.2 0zM793.96 663.21 a11.6 11.6 0 1 0 23.2 0 a11.6 11.6 0 1 0 -23.2 0zM894.43 721.21 a11.6 11.6 0 1 0 23.2 0 a11.6 11.6 0 1 0 -23.2 0zM894.43 837.21 a11.6 11.6 0 1 0 23.2 0 a11.6 11.6 0 1 0 -23.2 0zM793.96 895.21 a11.6 11.6 0 1 0 23.2 0 a11.6 11.6 0 1 0 -23.2 0zM693.5 837.21 a11.6 11.6 0 1 0 23.2 0 a11.6 11.6 0 1 0 -23.2 0zM693.5 721.21 a11.6 11.6 0 1 0 23.2 0 a11.6 11.6 0 1 0 -23.2 0zM793.96 1011.21 a11.6 11.6 0 1 0 23.2 0 a11.6 11.6 0 1 0 -23.2 0zM894.43 1069.21 a11.6 11.6 0 1 0 23.2 0 a11.6 11.6 0 1 0 -23.2 0zM894.43 1185.21 a11.6 11.6 0 1 0 23.2 0 a11.6 11.6 0 1 0 -23.2 0zM793.96 1243.21 a11.6 11.6 0 1 0 23.2 0 a11.6 11.6 0 1 0 -23.2 0zM1095.35 837.21 a11.6 11.6 0 1 0 23.2 0 a11.6 11.6 0 1 0 -23.2 0zM1195.81 895.21 a11.6 11.6 0 1 0 23.2 0 a11.6 11.6 0 1 0 -23.2 0zM1195.81 1011.21 a11.6 11.6 0 1 0 23.2 0 a11.6 11.6 0 1 0 -23.2 0zM1095.35 1069.21 a11.6 11.6 0 1 0 23.2 0 a11.6 11.6 0 1 0 -23.2 0zM994.89 1011.21 a11.6 11.6 0 1 0 23.2 0 a11.6 11.6 0 1 0 -23.2 0zM994.89 895.21 a11.6 11.6 0 1 0 23.2 0 a11.6 11.6 0 1 0 -23.2 0zM1095.35 1185.21 a11.6 11.6 0 1 0 23.2 0 a11.6 11.6 0 1 0 -23.2 0zM994.89 1243.21 a11.6 11.6 0 1 0 23.2 0 a11.6 11.6 0 1 0 -23.2 0zM1195.81 663.21 a11.6 11.6 0 1 0 23.2 0 a11.6 11.6 0 1 0 -23.2 0zM1296.27 721.21 a11.6 11.6 0 1 0 23.2 0 a11.6 11.6 0 1 0 -23.2 0zM1296.27 837.21 a11.6 11.6 0 1 0 23.2 0 a11.6 11.6 0 1 0 -23.2 0zM1095.35 721.21 a11.6 11.6 0 1 0 23.2 0 a11.6 11.6 0 1 0 -23.2 0zM1396.74 -32.79 a11.6 11.6 0 1 0 23.2 0 a11.6 11.6 0 1 0 -23.2 0zM1497.2 25.21 a11.6 11.6 0 1 0 23.2 0 a11.6 11.6 0 1 0 -23.2 0zM1497.2 141.21 a11.6 11.6 0 1 0 23.2 0 a11.6 11.6 0 1 0 -23.2 0zM1396.74 199.21 a11.6 11.6 0 1 0 23.2 0 a11.6 11.6 0 1 0 -23.2 0zM1296.27 141.21 a11.6 11.6 0 1 0 23.2 0 a11.6 11.6 0 1 0 -23.2 0zM1296.27 25.21 a11.6 11.6 0 1 0 23.2 0 a11.6 11.6 0 1 0 -23.2 0zM1396.74 1011.21 a11.6 11.6 0 1 0 23.2 0 a11.6 11.6 0 1 0 -23.2 0zM1497.2 1069.21 a11.6 11.6 0 1 0 23.2 0 a11.6 11.6 0 1 0 -23.2 0zM1497.2 1185.21 a11.6 11.6 0 1 0 23.2 0 a11.6 11.6 0 1 0 -23.2 0zM1396.74 1243.21 a11.6 11.6 0 1 0 23.2 0 a11.6 11.6 0 1 0 -23.2 0zM1296.27 1185.21 a11.6 11.6 0 1 0 23.2 0 a11.6 11.6 0 1 0 -23.2 0zM1296.27 1069.21 a11.6 11.6 0 1 0 23.2 0 a11.6 11.6 0 1 0 -23.2 0zM1698.12 837.21 a11.6 11.6 0 1 0 23.2 0 a11.6 11.6 0 1 0 -23.2 0zM1798.58 895.21 a11.6 11.6 0 1 0 23.2 0 a11.6 11.6 0 1 0 -23.2 0zM1798.58 1011.21 a11.6 11.6 0 1 0 23.2 0 a11.6 11.6 0 1 0 -23.2 0zM1698.12 1069.21 a11.6 11.6 0 1 0 23.2 0 a11.6 11.6 0 1 0 -23.2 0zM1597.66 1011.21 a11.6 11.6 0 1 0 23.2 0 a11.6 11.6 0 1 0 -23.2 0zM1597.66 895.21 a11.6 11.6 0 1 0 23.2 0 a11.6 11.6 0 1 0 -23.2 0zM1698.12 1185.21 a11.6 11.6 0 1 0 23.2 0 a11.6 11.6 0 1 0 -23.2 0zM1597.66 1243.21 a11.6 11.6 0 1 0 23.2 0 a11.6 11.6 0 1 0 -23.2 0zM1798.58 663.21 a11.6 11.6 0 1 0 23.2 0 a11.6 11.6 0 1 0 -23.2 0zM1899.04 721.21 a11.6 11.6 0 1 0 23.2 0 a11.6 11.6 0 1 0 -23.2 0zM1899.04 837.21 a11.6 11.6 0 1 0 23.2 0 a11.6 11.6 0 1 0 -23.2 0zM1698.12 721.21 a11.6 11.6 0 1 0 23.2 0 a11.6 11.6 0 1 0 -23.2 0zM2300.89 489.21 a11.6 11.6 0 1 0 23.2 0 a11.6 11.6 0 1 0 -23.2 0zM2401.35 547.21 a11.6 11.6 0 1 0 23.2 0 a11.6 11.6 0 1 0 -23.2 0zM2401.35 663.21 a11.6 11.6 0 1 0 23.2 0 a11.6 11.6 0 1 0 -23.2 0zM2300.89 721.21 a11.6 11.6 0 1 0 23.2 0 a11.6 11.6 0 1 0 -23.2 0zM2200.43 663.21 a11.6 11.6 0 1 0 23.2 0 a11.6 11.6 0 1 0 -23.2 0zM2200.43 547.21 a11.6 11.6 0 1 0 23.2 0 a11.6 11.6 0 1 0 -23.2 0zM2300.89 837.21 a11.6 11.6 0 1 0 23.2 0 a11.6 11.6 0 1 0 -23.2 0zM2200.43 895.21 a11.6 11.6 0 1 0 23.2 0 a11.6 11.6 0 1 0 -23.2 0zM2099.97 837.21 a11.6 11.6 0 1 0 23.2 0 a11.6 11.6 0 1 0 -23.2 0zM2099.97 721.21 a11.6 11.6 0 1 0 23.2 0 a11.6 11.6 0 1 0 -23.2 0zM2501.81 141.21 a11.6 11.6 0 1 0 23.2 0 a11.6 11.6 0 1 0 -23.2 0zM2602.28 199.21 a11.6 11.6 0 1 0 23.2 0 a11.6 11.6 0 1 0 -23.2 0zM2602.28 315.21 a11.6 11.6 0 1 0 23.2 0 a11.6 11.6 0 1 0 -23.2 0zM2501.81 373.21 a11.6 11.6 0 1 0 23.2 0 a11.6 11.6 0 1 0 -23.2 0zM2401.35 315.21 a11.6 11.6 0 1 0 23.2 0 a11.6 11.6 0 1 0 -23.2 0zM2401.35 199.21 a11.6 11.6 0 1 0 23.2 0 a11.6 11.6 0 1 0 -23.2 0zM2501.81 489.21 a11.6 11.6 0 1 0 23.2 0 a11.6 11.6 0 1 0 -23.2 0zM2300.89 373.21 a11.6 11.6 0 1 0 23.2 0 a11.6 11.6 0 1 0 -23.2 0zM2602.28 547.21 a11.6 11.6 0 1 0 23.2 0 a11.6 11.6 0 1 0 -23.2 0zM2602.28 663.21 a11.6 11.6 0 1 0 23.2 0 a11.6 11.6 0 1 0 -23.2 0zM2501.81 721.21 a11.6 11.6 0 1 0 23.2 0 a11.6 11.6 0 1 0 -23.2 0zM2501.81 837.21 a11.6 11.6 0 1 0 23.2 0 a11.6 11.6 0 1 0 -23.2 0zM2602.28 895.21 a11.6 11.6 0 1 0 23.2 0 a11.6 11.6 0 1 0 -23.2 0zM2602.28 1011.21 a11.6 11.6 0 1 0 23.2 0 a11.6 11.6 0 1 0 -23.2 0zM2501.81 1069.21 a11.6 11.6 0 1 0 23.2 0 a11.6 11.6 0 1 0 -23.2 0zM2401.35 1011.21 a11.6 11.6 0 1 0 23.2 0 a11.6 11.6 0 1 0 -23.2 0zM2401.35 895.21 a11.6 11.6 0 1 0 23.2 0 a11.6 11.6 0 1 0 -23.2 0zM2702.74 721.21 a11.6 11.6 0 1 0 23.2 0 a11.6 11.6 0 1 0 -23.2 0zM2702.74 837.21 a11.6 11.6 0 1 0 23.2 0 a11.6 11.6 0 1 0 -23.2 0z" fill="rgba(39, 99, 159, 0.75)"></path><path d="M145.41 574.05L215.56 614.55L215.56 695.55L145.41 736.05L75.26 695.55L75.26 614.55zM75.26 695.55L145.41 736.05L145.41 817.05L75.26 857.55L5.11 817.05L5.11 736.05zM145.41 1060.05L215.56 1100.55L215.56 1181.55L145.41 1222.05L75.26 1181.55L75.26 1100.55zM426.01 88.05L496.16 128.55L496.16 209.55L426.01 250.05L355.86 209.55L355.86 128.55zM355.86 452.55L426.01 493.05L426.01 574.05L355.86 614.55L285.71 574.05L285.71 493.05zM426.01 574.05L496.16 614.55L496.16 695.55L426.01 736.05L355.86 695.55L355.86 614.55zM355.86 695.55L426.01 736.05L426.01 817.05L355.86 857.55L285.71 817.05L285.71 736.05zM426.01 817.05L496.16 857.55L496.16 938.55L426.01 979.05L355.86 938.55L355.86 857.55zM496.16 938.55L566.31 979.05L566.31 1060.05L496.16 1100.55L426.01 1060.05L426.01 979.05zM566.31 1060.05L636.46 1100.55L636.46 1181.55L566.31 1222.05L496.16 1181.55L496.16 1100.55zM636.46 452.55L706.61 493.05L706.61 574.05L636.46 614.55L566.31 574.05L566.31 493.05zM636.46 695.55L706.61 736.05L706.61 817.05L636.46 857.55L566.31 817.05L566.31 736.05zM776.76 938.55L846.91 979.05L846.91 1060.05L776.76 1100.55L706.61 1060.05L706.61 979.05zM917.06 209.55L987.21 250.05L987.21 331.05L917.06 371.55L846.91 331.05L846.91 250.05zM1127.51 574.05L1197.66 614.55L1197.66 695.55L1127.51 736.05L1057.36 695.55L1057.36 614.55zM1127.51 817.05L1197.66 857.55L1197.66 938.55L1127.51 979.05L1057.36 938.55L1057.36 857.55zM1127.51 1060.05L1197.66 1100.55L1197.66 1181.55L1127.51 1222.05L1057.36 1181.55L1057.36 1100.55zM1197.66 209.55L1267.81 250.05L1267.81 331.05L1197.66 371.55L1127.51 331.05L1127.51 250.05zM1267.81 331.05L1337.96 371.55L1337.96 452.55L1267.81 493.05L1197.66 452.55L1197.66 371.55zM1267.81 574.05L1337.96 614.55L1337.96 695.55L1267.81 736.05L1197.66 695.55L1197.66 614.55zM1337.96 -33.45L1408.11 7.05L1408.11 88.05L1337.96 128.55L1267.81 88.05L1267.81 7.05zM1337.96 209.55L1408.11 250.05L1408.11 331.05L1337.96 371.55L1267.81 331.05L1267.81 250.05zM1337.96 452.55L1408.11 493.05L1408.11 574.05L1337.96 614.55L1267.81 574.05L1267.81 493.05zM1478.26 209.55L1548.41 250.05L1548.41 331.05L1478.26 371.55L1408.11 331.05L1408.11 250.05zM1618.56 695.55L1688.71 736.05L1688.71 817.05L1618.56 857.55L1548.41 817.05L1548.41 736.05zM1688.71 817.05L1758.86 857.55L1758.86 938.55L1688.71 979.05L1618.56 938.55L1618.56 857.55zM1688.71 1060.05L1758.86 1100.55L1758.86 1181.55L1688.71 1222.05L1618.56 1181.55L1618.56 1100.55zM1758.86 452.55L1829.01 493.05L1829.01 574.05L1758.86 614.55L1688.71 574.05L1688.71 493.05zM1899.16 209.55L1969.31 250.05L1969.31 331.05L1899.16 371.55L1829.01 331.05L1829.01 250.05zM1899.16 695.55L1969.31 736.05L1969.31 817.05L1899.16 857.55L1829.01 817.05L1829.01 736.05zM1969.31 1060.05L2039.46 1100.55L2039.46 1181.55L1969.31 1222.05L1899.16 1181.55L1899.16 1100.55zM2039.46 452.55L2109.61 493.05L2109.61 574.05L2039.46 614.55L1969.31 574.05L1969.31 493.05zM2109.61 1060.05L2179.76 1100.55L2179.76 1181.55L2109.61 1222.05L2039.46 1181.55L2039.46 1100.55zM2179.76 -33.45L2249.91 7.05L2249.91 88.05L2179.76 128.55L2109.61 88.05L2109.61 7.05zM2179.76 938.55L2249.91 979.05L2249.91 1060.05L2179.76 1100.55L2109.61 1060.05L2109.61 979.05zM2390.21 88.05L2460.36 128.55L2460.36 209.55L2390.21 250.05L2320.06 209.55L2320.06 128.55zM2530.51 331.05L2600.66 371.55L2600.66 452.55L2530.51 493.05L2460.36 452.55L2460.36 371.55zM2530.51 817.05L2600.66 857.55L2600.66 938.55L2530.51 979.05L2460.36 938.55L2460.36 857.55zM2600.66 -33.45L2670.81 7.05L2670.81 88.05L2600.66 128.55L2530.51 88.05L2530.51 7.05zM2670.81 331.05L2740.96 371.55L2740.96 452.55L2670.81 493.05L2600.66 452.55L2600.66 371.55zM2600.66 695.55L2670.81 736.05L2670.81 817.05L2600.66 857.55L2530.51 817.05L2530.51 736.05zM2811.11 88.05L2881.26 128.55L2881.26 209.55L2811.11 250.05L2740.96 209.55L2740.96 128.55zM2740.96 209.55L2811.11 250.05L2811.11 331.05L2740.96 371.55L2670.81 331.05L2670.81 250.05zM2811.11 1060.05L2881.26 1100.55L2881.26 1181.55L2811.11 1222.05L2740.96 1181.55L2740.96 1100.55zM2881.26 209.55L2951.41 250.05L2951.41 331.05L2881.26 371.55L2811.11 331.05L2811.11 250.05z" stroke="rgba(0, 0, 0, 0)" stroke-width="2"></path></g><defs><mask id="SvgjsMask1508"><rect width="2880" height="1120" fill="#ffffff"></rect></mask></defs></svg>