<svg xmlns="http://www.w3.org/2000/svg" version="1.1" xmlns:xlink="http://www.w3.org/1999/xlink" xmlns:svgjs="http://svgjs.com/svgjs" width="2880" height="1120" preserveAspectRatio="none" viewBox="0 0 2880 1120"><g mask="url(&quot;#SvgjsMask1400&quot;)" fill="none"><path d="M2116 344L2115 649" stroke-width="6" stroke="url(#SvgjsLinearGradient1401)" stroke-linecap="round" class="Up"></path><path d="M2007 195L2006 -634" stroke-width="8" stroke="url(#SvgjsLinearGradient1402)" stroke-linecap="round" class="Down"></path><path d="M1822 834L1821 228" stroke-width="8" stroke="url(#SvgjsLinearGradient1402)" stroke-linecap="round" class="Down"></path><path d="M272 838L271 1402" stroke-width="10" stroke="url(#SvgjsLinearGradient1403)" stroke-linecap="round" class="Up"></path><path d="M1293 468L1292 -59" stroke-width="8" stroke="url(#SvgjsLinearGradient1401)" stroke-linecap="round" class="Up"></path><path d="M315 149L314 878" stroke-width="10" stroke="url(#SvgjsLinearGradient1403)" stroke-linecap="round" class="Up"></path><path d="M2466 663L2465 148" stroke-width="10" stroke="url(#SvgjsLinearGradient1404)" stroke-linecap="round" class="Down"></path><path d="M1333 606L1332 -210" stroke-width="8" stroke="url(#SvgjsLinearGradient1404)" stroke-linecap="round" class="Down"></path><path d="M2290 336L2289 984" stroke-width="6" stroke="url(#SvgjsLinearGradient1404)" stroke-linecap="round" class="Down"></path><path d="M111 717L110 1168" stroke-width="8" stroke="url(#SvgjsLinearGradient1401)" stroke-linecap="round" class="Up"></path><path d="M2057 412L2056 -418" stroke-width="8" stroke="url(#SvgjsLinearGradient1402)" stroke-linecap="round" class="Down"></path><path d="M974 383L973 666" stroke-width="8" stroke="url(#SvgjsLinearGradient1402)" stroke-linecap="round" class="Down"></path><path d="M2125 228L2124 -218" stroke-width="10" stroke="url(#SvgjsLinearGradient1404)" stroke-linecap="round" class="Down"></path><path d="M55 649L54 1082" stroke-width="6" stroke="url(#SvgjsLinearGradient1402)" stroke-linecap="round" class="Down"></path><path d="M2639 1090L2638 1900" stroke-width="8" stroke="url(#SvgjsLinearGradient1401)" stroke-linecap="round" class="Up"></path><path d="M1745 216L1744 -407" stroke-width="10" stroke="url(#SvgjsLinearGradient1402)" stroke-linecap="round" class="Down"></path><path d="M450 177L449 -472" stroke-width="6" stroke="url(#SvgjsLinearGradient1402)" stroke-linecap="round" class="Down"></path><path d="M965 462L964 -90" stroke-width="6" stroke="url(#SvgjsLinearGradient1403)" stroke-linecap="round" class="Up"></path><path d="M1654 824L1653 1198" stroke-width="8" stroke="url(#SvgjsLinearGradient1404)" stroke-linecap="round" class="Down"></path><path d="M2339 595L2338 -186" stroke-width="10" stroke="url(#SvgjsLinearGradient1403)" stroke-linecap="round" class="Up"></path><path d="M2062 978L2061 1538" stroke-width="10" stroke="url(#SvgjsLinearGradient1403)" stroke-linecap="round" class="Up"></path><path d="M2237 969L2236 623" stroke-width="10" stroke="url(#SvgjsLinearGradient1403)" stroke-linecap="round" class="Up"></path><path d="M2563 453L2562 131" stroke-width="10" stroke="url(#SvgjsLinearGradient1404)" stroke-linecap="round" class="Down"></path><path d="M201 316L200 -33" stroke-width="10" stroke="url(#SvgjsLinearGradient1404)" stroke-linecap="round" class="Down"></path><path d="M134 746L133 1497" stroke-width="6" stroke="url(#SvgjsLinearGradient1401)" stroke-linecap="round" class="Up"></path><path d="M1891 881L1890 322" stroke-width="8" stroke="url(#SvgjsLinearGradient1404)" stroke-linecap="round" class="Down"></path><path d="M1693 767L1692 1357" stroke-width="8" stroke="url(#SvgjsLinearGradient1401)" stroke-linecap="round" class="Up"></path><path d="M200 921L199 184" stroke-width="6" stroke="url(#SvgjsLinearGradient1403)" stroke-linecap="round" class="Up"></path><path d="M2670 298L2669 9" stroke-width="8" stroke="url(#SvgjsLinearGradient1403)" stroke-linecap="round" class="Up"></path><path d="M1026 54L1025 -712" stroke-width="6" stroke="url(#SvgjsLinearGradient1403)" stroke-linecap="round" class="Up"></path><path d="M176 72L175 -454" stroke-width="8" stroke="url(#SvgjsLinearGradient1402)" stroke-linecap="round" class="Down"></path><path d="M739 399L738 -200" stroke-width="10" stroke="url(#SvgjsLinearGradient1401)" stroke-linecap="round" class="Up"></path><path d="M2522 755L2521 1203" stroke-width="6" stroke="url(#SvgjsLinearGradient1403)" stroke-linecap="round" class="Up"></path><path d="M1756 840L1755 361" stroke-width="10" stroke="url(#SvgjsLinearGradient1404)" stroke-linecap="round" class="Down"></path><path d="M1743 927L1742 1251" stroke-width="8" stroke="url(#SvgjsLinearGradient1402)" stroke-linecap="round" class="Down"></path><path d="M2591 494L2590 938" stroke-width="8" stroke="url(#SvgjsLinearGradient1404)" stroke-linecap="round" class="Down"></path><path d="M2770 358L2769 -448" stroke-width="6" stroke="url(#SvgjsLinearGradient1403)" stroke-linecap="round" class="Up"></path><path d="M1236 649L1235 1144" stroke-width="8" stroke="url(#SvgjsLinearGradient1403)" stroke-linecap="round" class="Up"></path><path d="M668 579L667 1177" stroke-width="6" stroke="url(#SvgjsLinearGradient1401)" stroke-linecap="round" class="Up"></path><path d="M1490 48L1489 -317" stroke-width="6" stroke="url(#SvgjsLinearGradient1401)" stroke-linecap="round" class="Up"></path><path d="M1991 159L1990 658" stroke-width="10" stroke="url(#SvgjsLinearGradient1404)" stroke-linecap="round" class="Down"></path><path d="M2778 697L2777 1170" stroke-width="10" stroke="url(#SvgjsLinearGradient1401)" stroke-linecap="round" class="Up"></path><path d="M457 384L456 -274" stroke-width="8" stroke="url(#SvgjsLinearGradient1404)" stroke-linecap="round" class="Down"></path><path d="M711 885L710 417" stroke-width="8" stroke="url(#SvgjsLinearGradient1403)" stroke-linecap="round" class="Up"></path><path d="M1098 729L1097 1112" stroke-width="6" stroke="url(#SvgjsLinearGradient1402)" stroke-linecap="round" class="Down"></path><path d="M2214 1119L2213 713" stroke-width="8" stroke="url(#SvgjsLinearGradient1403)" stroke-linecap="round" class="Up"></path><path d="M713 259L712 1066" stroke-width="6" stroke="url(#SvgjsLinearGradient1404)" stroke-linecap="round" class="Down"></path><path d="M1599 1116L1598 1490" stroke-width="6" stroke="url(#SvgjsLinearGradient1402)" stroke-linecap="round" class="Down"></path><path d="M2321 1006L2320 283" stroke-width="10" stroke="url(#SvgjsLinearGradient1403)" stroke-linecap="round" class="Up"></path><path d="M2391 725L2390 1144" stroke-width="6" stroke="url(#SvgjsLinearGradient1404)" stroke-linecap="round" class="Down"></path><path d="M2361 1L2360 769" stroke-width="10" stroke="url(#SvgjsLinearGradient1404)" stroke-linecap="round" class="Down"></path><path d="M2340 947L2339 1298" stroke-width="8" stroke="url(#SvgjsLinearGradient1404)" stroke-linecap="round" class="Down"></path><path d="M2323 783L2322 73" stroke-width="10" stroke="url(#SvgjsLinearGradient1401)" stroke-linecap="round" class="Up"></path><path d="M841 674L840 140" stroke-width="6" stroke="url(#SvgjsLinearGradient1403)" stroke-linecap="round" class="Up"></path><path d="M429 657L428 1448" stroke-width="6" stroke="url(#SvgjsLinearGradient1401)" stroke-linecap="round" class="Up"></path><path d="M787 605L786 273" stroke-width="6" stroke="url(#SvgjsLinearGradient1403)" stroke-linecap="round" class="Up"></path><path d="M1971 535L1970 -217" stroke-width="6" stroke="url(#SvgjsLinearGradient1402)" stroke-linecap="round" class="Down"></path><path d="M563 529L562 1109" stroke-width="10" stroke="url(#SvgjsLinearGradient1403)" stroke-linecap="round" class="Up"></path><path d="M787 837L786 1598" stroke-width="6" stroke="url(#SvgjsLinearGradient1404)" stroke-linecap="round" class="Down"></path><path d="M431 215L430 -400" stroke-width="8" stroke="url(#SvgjsLinearGradient1403)" stroke-linecap="round" class="Up"></path><path d="M2822 550L2821 -110" stroke-width="8" stroke="url(#SvgjsLinearGradient1403)" stroke-linecap="round" class="Up"></path><path d="M554 1052L553 415" stroke-width="8" stroke="url(#SvgjsLinearGradient1404)" stroke-linecap="round" class="Down"></path><path d="M2559 124L2558 -633" stroke-width="10" stroke="url(#SvgjsLinearGradient1403)" stroke-linecap="round" class="Up"></path><path d="M2132 895L2131 1352" stroke-width="8" stroke="url(#SvgjsLinearGradient1404)" stroke-linecap="round" class="Down"></path><path d="M832 1L831 -714" stroke-width="10" stroke="url(#SvgjsLinearGradient1404)" stroke-linecap="round" class="Down"></path><path d="M856 307L855 -245" stroke-width="10" stroke="url(#SvgjsLinearGradient1403)" stroke-linecap="round" class="Up"></path><path d="M552 234L551 841" stroke-width="8" stroke="url(#SvgjsLinearGradient1402)" stroke-linecap="round" class="Down"></path><path d="M1210 134L1209 -346" stroke-width="8" stroke="url(#SvgjsLinearGradient1401)" stroke-linecap="round" class="Up"></path><path d="M1546 436L1545 1175" stroke-width="8" stroke="url(#SvgjsLinearGradient1403)" stroke-linecap="round" class="Up"></path><path d="M2269 187L2268 851" stroke-width="10" stroke="url(#SvgjsLinearGradient1403)" stroke-linecap="round" class="Up"></path><path d="M191 859L190 24" stroke-width="6" stroke="url(#SvgjsLinearGradient1403)" stroke-linecap="round" class="Up"></path><path d="M411 155L410 593" stroke-width="10" stroke="url(#SvgjsLinearGradient1401)" stroke-linecap="round" class="Up"></path></g><defs><mask id="SvgjsMask1400"><rect width="2880" height="1120" fill="#ffffff"></rect></mask><linearGradient x1="0%" y1="100%" x2="0%" y2="0%" id="SvgjsLinearGradient1401"><stop stop-color="rgba(91, 91, 113, 0)" offset="0"></stop><stop stop-color="rgba(91, 91, 113, 0.78)" offset="1"></stop></linearGradient><linearGradient x1="0%" y1="0%" x2="0%" y2="100%" id="SvgjsLinearGradient1402"><stop stop-color="rgba(25, 75, 129, 0)" offset="0"></stop><stop stop-color="rgba(25, 75, 129, 0.75)" offset="1"></stop></linearGradient><linearGradient x1="0%" y1="100%" x2="0%" y2="0%" id="SvgjsLinearGradient1403"><stop stop-color="rgba(25, 75, 129, 0)" offset="0"></stop><stop stop-color="rgba(25, 75, 129, 0.75)" offset="1"></stop></linearGradient><linearGradient x1="0%" y1="0%" x2="0%" y2="100%" id="SvgjsLinearGradient1404"><stop stop-color="rgba(91, 91, 113, 0)" offset="0"></stop><stop stop-color="rgba(91, 91, 113, 0.78)" offset="1"></stop></linearGradient></defs></svg>